<?xml version="1.0" encoding="UTF-8" standalone="no"?>
<svg
   version="1.1"
   viewBox="0 0 256 256"
   width="256"
   height="256"
   id="svg16"
   sodipodi:docname="Mask 03.svg"
   inkscape:version="1.4.2 (f4327f4, 2025-05-13)"
   inkscape:export-filename="HEX04.03.plain.svg"
   inkscape:export-xdpi="96"
   inkscape:export-ydpi="96"
   xmlns:inkscape="http://www.inkscape.org/namespaces/inkscape"
   xmlns:sodipodi="http://sodipodi.sourceforge.net/DTD/sodipodi-0.dtd"
   xmlns="http://www.w3.org/2000/svg"
   xmlns:svg="http://www.w3.org/2000/svg"
   xmlns:rdf="http://www.w3.org/1999/02/22-rdf-syntax-ns#"
   xmlns:cc="http://creativecommons.org/ns#"
   xmlns:dc="http://purl.org/dc/elements/1.1/">
  <title
     id="title3">Hexadecimal №4 mask</title>
  <sodipodi:namedview
     id="namedview16"
     pagecolor="#ffffff"
     bordercolor="#666666"
     borderopacity="1.0"
     inkscape:showpageshadow="2"
     inkscape:pageopacity="0.0"
     inkscape:pagecheckerboard="true"
     inkscape:deskcolor="#d1d1d1"
     inkscape:document-units="px"
     showgrid="false"
     inkscape:zoom="1.3147767"
     inkscape:cx="284.83925"
     inkscape:cy="136.14479"
     inkscape:window-width="1366"
     inkscape:window-height="705"
     inkscape:window-x="-4"
     inkscape:window-y="-4"
     inkscape:window-maximized="1"
     inkscape:current-layer="layer1"
     inkscape:clip-to-page="true" />
  <defs
     id="defs6">
    <linearGradient
       x1="74.980667"
       y1="437.01935"
       x2="437.01935"
       y2="74.980667"
       gradientUnits="userSpaceOnUse"
       id="Grad0"
       gradientTransform="matrix(0.74963396,0,0,0.74963396,0.093704,0.093704)">
      <stop
         stop-opacity="1"
         stop-color="#c80000"
         offset="0"
         id="stop1"
         style="stop-color:#320000;stop-opacity:1;" />
      <stop
         stop-opacity="1"
         stop-color="#c80000"
         offset="1"
         id="stop2"
         style="stop-color:#c80000;stop-opacity:1;" />
    </linearGradient>
    <linearGradient
       x1="28.264196"
       y1="24.514196"
       x2="164.73581"
       y2="160.98581"
       gradientUnits="userSpaceOnUse"
       id="Grad1"
       gradientTransform="matrix(0.74963396,0,0,0.74963396,90.04978,90.04978)">
      <stop
         stop-opacity="1"
         stop-color="#c80000"
         offset="0"
         id="stop3"
         style="stop-color:#000000;stop-opacity:1;" />
      <stop
         stop-opacity="1"
         stop-color="#000000"
         offset="0.51000029"
         id="stop4"
         style="stop-color:#c80000;stop-opacity:0;" />
    </linearGradient>
    <linearGradient
       x1="35.255997"
       y1="206.4545"
       x2="205.487"
       y2="36.223495"
       gradientUnits="userSpaceOnUse"
       id="Grad2"
       gradientTransform="matrix(0.74963396,0,0,0.74963396,109.57484,103.91602)">
      <stop
         stop-opacity="1"
         stop-color="#ffffff"
         offset="0"
         id="stop5"
         style="stop-color:#c8c8c8;stop-opacity:1;" />
      <stop
         stop-opacity="1"
         stop-color="#cccccc"
         offset="1"
         id="stop6"
         style="stop-color:#ffffff;stop-opacity:1;" />
    </linearGradient>
  </defs>
  <metadata
     id="metadata3">
    <rdf:RDF>
      <cc:Work
         rdf:about="">
        <dc:title>Hexadecimal №4 mask</dc:title>
        <dc:creator>
          <cc:Agent>
            <dc:title>Ilyich the Toad</dc:title>
          </cc:Agent>
        </dc:creator>
        <dc:subject>
          <rdf:Bag>
            <rdf:li>ReBoot; Hexadecimal; Number 7</rdf:li>
          </rdf:Bag>
        </dc:subject>
        <dc:description>Hexadecimal from &quot;ReBoot&quot; series, season 3 episode 7 &quot;Number 7&quot;, frame 26969, mask only, completely redrawn manually.</dc:description>
        <dc:source>&quot;ReBoot&quot; season 3 episode 7 &quot;Number 7&quot;, frame 26969</dc:source>
      </cc:Work>
    </rdf:RDF>
  </metadata>
  <g
     inkscape:groupmode="layer"
     id="layer1"
     inkscape:label="Hexadecimal"
     transform="matrix(1.3333334,0,0,1.333325,-138.39493,-131.82113)">
    <path
       style="clip-rule:evenodd;fill:url(#Grad2);fill-rule:evenodd;stroke:#000000;stroke-width:0.187408;stroke-linecap:butt;stroke-linejoin:miter;stroke-dasharray:none"
       d="m 210.86313,103.91602 c 13.15608,11.3622 12.67706,18.40951 22.30386,28.89614 11.82173,12.87721 21.08046,15.55116 33.60159,29.66601 2.92882,3.30064 4.54578,7.15076 6.59978,11.10808 8.58331,15.03616 10.81872,29.53033 14.25729,47.06877 2.94831,15.0399 5.04878,38.60315 -5.21445,45.6557 -7.81269,5.36888 -16.1906,15.34351 -29.35267,18.30007 -16.11563,3.62073 -26.0033,-1.28562 -41.54696,-8.21674 -21.24838,-9.47387 -41.31758,-21.15842 -49.98935,-30.50336 -10.78123,-11.61932 -16.4717,-27.37063 -26.26342,-40.8393 -6.35615,-8.74298 -16.05041,-12.85922 -25.68396,-28.31818 22.77238,-21.24987 30.51685,-28.51607 52.33345,-43.72914 18.21685,-12.7018 35.24479,-22.92381 48.95484,-29.08805 z"
       id="path8"
       inkscape:label="Mask outline" />
    <g
       id="g2"
       inkscape:label="Eyes"
       transform="translate(-46.1376,-47.0089)">
      <path
         style="clip-rule:evenodd;fill:#32af32;fill-rule:evenodd;stroke:#000000;stroke-width:0.187408;stroke-linecap:butt;stroke-linejoin:miter;stroke-dasharray:none"
         d="m 263.99128,185.47635 c 3.85236,-0.17167 6.76169,-0.88382 9.07581,0.96328 4.11624,3.28564 5.93711,6.57127 5.98733,12.90718 -3.91309,8.80745 -14.60737,14.88848 -26.84293,8.47611 -0.38606,-3.75641 1.545,-17.81953 11.77979,-22.34657 z"
         id="path11" />
      <path
         style="clip-rule:evenodd;fill:#32af32;fill-rule:evenodd;stroke:#000000;stroke-width:0.187408;stroke-linecap:butt;stroke-linejoin:miter;stroke-dasharray:none"
         d="m 232.7065,224.38959 c 0.97003,17.04744 -15.25955,27.3819 -30.89766,22.1532 -1.7384,-1.5405 -3.2834,-4.04577 -4.05552,-5.77893 1.96404,-17.39302 25.65097,-21.90582 34.95318,-16.37427 z"
         id="path12" />
    </g>
    <g
       id="g1"
       inkscape:label="Eyebrows"
       transform="translate(-46.1376,-47.0089)">
      <path
         style="clip-rule:evenodd;fill:#000000;fill-rule:evenodd;stroke:#000000;stroke-width:0.187408;stroke-linecap:butt;stroke-linejoin:miter;stroke-dasharray:none"
         d="m 253.36941,166.21194 c 5.69872,0.38381 14.65984,7.7722 17.38027,11.36595 -4.46333,-2.3636 -11.36296,-6.97309 -15.25581,-6.3569 -8.67101,2.44906 -11.17629,8.31644 -16.02792,14.06239 -0.38681,0 -0.75488,0.2024 -1.15893,7.5e-4 -0.63794,-0.31935 -0.38606,-1.15669 -0.57947,-1.73466 2.64396,-12.54962 9.94464,-14.1186 15.64186,-17.33753 z"
         id="path9" />
      <path
         style="clip-rule:evenodd;fill:#000000;fill-rule:evenodd;stroke:#000000;stroke-width:0.187408;stroke-linecap:butt;stroke-linejoin:miter;stroke-dasharray:none"
         d="m 216.29177,199.15386 c 0.77287,2.31112 0,2.88984 -1.15819,4.04502 -9.96713,2.43856 -23.50252,8.77822 -27.22971,19.07144 -1.90258,5.25719 -0.38607,11.1733 -0.57872,16.75957 -0.38981,-2.69868 -4.24518,-5.58477 -3.47605,-22.5385 3.56525,-4.59375 12.61635,-13.25053 23.28439,-16.02492 3.4918,-0.90781 5.15973,-0.80286 9.15828,-1.31261 z"
         id="path10" />
    </g>
    <path
       style="clip-rule:evenodd;fill:#be4a3c;fill-rule:evenodd;stroke:#642018;stroke-width:0.18675;stroke-linecap:butt;stroke-linejoin:miter;stroke-dasharray:none;stroke-opacity:1"
       d="m 262.26918,197.22195 c 0.12744,3.2864 2.23166,6.81342 2.89584,11.39369 -0.95728,8.54882 1.10346,14.1321 -3.00079,21.56622 -3.68969,6.68298 -7.81943,9.43714 -14.47468,13.17706 -15.33751,8.62004 -36.30552,3.64547 -45.09198,-1.44454 17.405,-1.9483 20.63742,-0.81261 33.1668,-13.77378 5.49407,-3.61923 7.89365,-2.5585 9.8487,-3.03377 2.17318,-2.73766 1.006,-5.64324 3.62148,-7.51283 2.79988,-1.92656 4.87637,-2.69718 7.38614,-4.04577 4.44158,-4.86363 4.10425,-12.32923 5.64849,-16.32628 z"
       id="path13"
       inkscape:label="Lips" />
    <path
       id="path16"
       style="clip-rule:evenodd;fill:#a3a3a3;fill-rule:evenodd;stroke:none;stroke-width:0;stroke-linecap:butt;stroke-linejoin:miter;stroke-dasharray:none"
       d="m 205.64558,225.96816 c 2.11997,0.61545 1.70767,0.47227 2.90334,1.74215 -1.54875,2.70918 -3.09749,5.41985 -4.64549,8.12903 -2.51577,0.58097 -5.03229,1.16118 -7.54881,1.74215 0.19416,-0.58097 0.38756,-1.16118 0.58097,-1.74215 2.90258,-3.29014 5.80666,-6.58104 8.70999,-9.87118 z m -20.32341,-58.64611 c 7.26247,0.36507 19.45826,10.10282 22.06474,16.83903 6.84341,8.26021 10.70027,13.77077 11.88694,16.45371 h 0.30436 l 1.17617,7.05556 -4.11549,4.7032 H 214.875 l -0.58846,-0.58771 c -0.23089,-5.57203 1.49852,-6.21447 3.09974,-10.05109 -3.10424,-1.9528 -9.29696,-7.57955 -18.1284,-16.99271 -2.52027,-5.86738 -15.58865,-9.22949 -15.67711,-13.93569 -0.19415,-0.38756 0.83134,-1.9468 1.7414,-3.4843 z"
       inkscape:label="Shadows" />
  </g>
</svg>
