<?xml version="1.0" encoding="UTF-8" standalone="no"?>
<svg
   version="1.1"
   id="svg1"
   width="960"
   height="408"
   viewBox="0 0 960 408"
   sodipodi:docname="ahsoka_s7e10_30971.svg"
   xml:space="preserve"
   inkscape:version="1.4.4 (dcaf3e7, 2026-05-05)"
   inkscape:export-filename="ahsoka_s7e10_30971.svg"
   inkscape:export-xdpi="96"
   inkscape:export-ydpi="96"
   xmlns:inkscape="http://www.inkscape.org/namespaces/inkscape"
   xmlns:sodipodi="http://sodipodi.sourceforge.net/DTD/sodipodi-0.dtd"
   xmlns:xlink="http://www.w3.org/1999/xlink"
   xmlns="http://www.w3.org/2000/svg"
   xmlns:svg="http://www.w3.org/2000/svg"
   xmlns:rdf="http://www.w3.org/1999/02/22-rdf-syntax-ns#"
   xmlns:cc="http://creativecommons.org/ns#"
   xmlns:dc="http://purl.org/dc/elements/1.1/"><title
     id="title1">Ahsoka s7e10 030971</title><defs
     id="defs1"><linearGradient
       id="linearGradient2"
       inkscape:collect="always"><stop
         style="stop-color:#ffffff;stop-opacity:1;"
         offset="0"
         id="stop3" /><stop
         style="stop-color:#808080;stop-opacity:1;"
         offset="1"
         id="stop2" /></linearGradient><filter
       inkscape:collect="always"
       style="color-interpolation-filters:sRGB"
       id="filter3"
       x="-0.13582469"
       y="-0.084536202"
       width="1.2479399"
       height="1.1569351"><feGaussianBlur
         inkscape:collect="always"
         stdDeviation="5.4812568"
         id="feGaussianBlur3" /></filter><filter
       inkscape:collect="always"
       style="color-interpolation-filters:sRGB"
       id="filter4"
       x="-0.43856248"
       y="-0.054574378"
       width="1.8709972"
       height="1.0946633"><feGaussianBlur
         inkscape:collect="always"
         stdDeviation="5.4812568"
         id="feGaussianBlur4" /></filter><pattern
       inkscape:collect="always"
       xlink:href="#Checkerboard"
       preserveAspectRatio="xMidYMid"
       id="pattern2"
       patternTransform="matrix(16,0,0,16,552.7273,-664.08505)"
       x="0.5"
       y="0.5" /><pattern
       inkscape:collect="always"
       style="fill:#cccccc"
       patternUnits="userSpaceOnUse"
       width="2"
       height="2"
       patternTransform="translate(0,0) scale(10,10)"
       id="Checkerboard"
       inkscape:stockid="Checkerboard"
       preserveAspectRatio="xMidYMid"
       inkscape:isstock="true"
       inkscape:label="Checkerboard"><rect
         style="stroke:none"
         x="0"
         y="0"
         width="1"
         height="1"
         id="rect209" /><rect
         style="stroke:none"
         x="1"
         y="1"
         width="1"
         height="1"
         id="rect211" /></pattern><mask
       maskUnits="userSpaceOnUse"
       id="mask5"><rect
         style="display:inline;opacity:1;fill:url(#linearGradient5);stroke:#135cdf;stroke-width:0;stroke-linejoin:round;paint-order:markers stroke fill"
         id="rect5"
         width="960"
         height="408"
         x="0"
         y="0"
         inkscape:label="Mask" /></mask><linearGradient
       inkscape:collect="always"
       xlink:href="#linearGradient2"
       id="linearGradient5"
       gradientUnits="userSpaceOnUse"
       x1="474.85712"
       y1="3.3998795"
       x2="474.85712"
       y2="413.17154" /><clipPath
       clipPathUnits="userSpaceOnUse"
       id="clipPath1"><path
         id="path4"
         style="fill:none;stroke:none;stroke-width:2px;stroke-linecap:butt;stroke-linejoin:miter;stroke-opacity:1"
         d="m 756.00486,392.71054 c 10.47093,-5.78091 14.68425,-6.75556 26.22661,-8.75155 -0.016,-9.78642 0.12222,-18.21678 1.60484,-32.12451 l 4.2578,-4.33711 -6.38549,-0.3855 c -13.22484,27.87091 -15.05093,29.65652 -25.70376,45.59867 z M 716,29.961732 C 741.00008,32.95354 797.0001,80.82235 826.00008,79.825086 859,77.830544 903.99996,22.980866 937.00004,16 941.99994,20.986336 919,55.89068 922,77.830544 c 3,19.945346 14.00008,53.852426 19,64.822346 5.00006,10.96994 3.99996,45.87428 18.00004,79.78137 C 963,231.40966 966,248.3632 966,267.31126 c 0,20.9426 -5.00006,40.88794 -12.00002,51.85788 -12.00004,21.93986 -28.00002,41.8852 -47.00002,55.84694 9.00002,17.95082 42.0001,18.94808 56.00004,22.93714 14.00008,2.99182 13,7.97816 14.00008,11.9672 1.99992,2.99182 22.00002,13.96176 26.99992,37.89616 6,24.93168 6,26.9262 7,49.86334 4.0001,27.92346 30,128.64742 34.9999,144.6037 5.0001,13.96174 17.0002,23.93442 19,30.91526 4.0001,3.98908 20.0001,10.96996 23.0002,28.92076 1.9998,8.9754 9.9999,37.89612 13.9999,63.82508 3.9999,26.9262 9,48.86608 9,48.86608 h -74 l -34,-79.78136 c 0,0 -8,-16.95354 -5.99996,-51.85786 0,-6.9809 -12.99998,-38.89342 -22.99996,-67.81416 -15.00004,-47.86882 -33.00008,-97.73216 -35,-111.6939 -7.0001,11.9672 -33.36035,73.46433 -42.00008,97.73216 -12.6782,35.61134 -3.99996,52.85516 -0.99996,60.83328 C 897,663.22622 903,661.2317 906,667.2153 c 3.00002,5.9836 18.00006,29.918 19.99996,32.9098 2.00004,3.98908 -1.9999,5.9836 1.0001,8.97542 3.00002,3.98906 14.99988,21.93986 14.99988,21.93986 v 5.9836 l 22,40.88796 c 0,0 9.00004,21.93986 3.00002,32.9098 C 962.00006,821.79168 966,814.8108 966,814.8108 H 687.00002 c 0,0 -5.00006,-24.93166 6.99996,-48.86608 2.00006,-18.94808 2.00006,-9.97266 2.00006,-21.93986 0.99996,-9.97268 0,-20.94262 5.99988,-25.92896 -3,-8.97538 1.0001,-37.89614 7.0001,-44.877 4.99992,-4.98634 -4.0001,-53.8524 -4.0001,-53.8524 0,0 -19.99996,42.88246 -22.99996,55.84694 -2.00006,5.9836 -0.99996,35.9016 -19,59.836 -0.99996,0.99728 0.99996,1.99454 0,2.99182 -12.99998,17.9508 -15.99998,29.918 -25.00002,42.88246 -7.9999,11.96722 -3,10.96994 -9.00002,16.95354 -6,6.98088 -12.99998,16.95354 -12.99998,16.95354 H 552 c 0,0 9.99996,-30.91526 21.00004,-63.82508 C 583.99996,717.07864 596,682.1743 599,672.20164 c 3.00002,-0.99726 6.99998,0.99726 7.99992,4.98634 C 605.99998,682.1743 618,657.24264 627.99998,652.2563 638.9999,611.36834 656,562.50226 660.9999,548.54054 666.99992,490.69904 684,414.90676 693.00004,380.9997 c 4.99992,-38.89342 1.9999,-122.66384 5.99988,-148.59278 3,-21.93988 4.0001,-41.88521 7.0001,-67.81414 3,-23.93441 16.00004,-45.87429 19.00004,-74.79502 C 726.99998,57.88521 713,40.93167 716,29.961732 Z"
         inkscape:label="Clip"
         sodipodi:nodetypes="ccccccccccscsccccccccccccccccscscccccccccccccccccccccccccccccc" /></clipPath></defs><sodipodi:namedview
     id="namedview1"
     pagecolor="#ffffff"
     bordercolor="#666666"
     borderopacity="1.0"
     inkscape:showpageshadow="2"
     inkscape:pageopacity="0.0"
     inkscape:pagecheckerboard="false"
     inkscape:deskcolor="#d1d1d1"
     showgrid="false"
     inkscape:zoom="3.2998317"
     inkscape:cx="527.60267"
     inkscape:cy="269.10464"
     inkscape:window-width="1366"
     inkscape:window-height="705"
     inkscape:window-x="-4"
     inkscape:window-y="-4"
     inkscape:window-maximized="1"
     inkscape:current-layer="svg1"
     showborder="false" /><rect
     style="display:inline;fill:url(#pattern2);stroke-width:0;paint-order:stroke fill markers"
     id="rect1"
     width="960"
     height="408"
     x="0"
     y="0"
     inkscape:label="Chessboard" /><image
     width="960"
     height="408"
     preserveAspectRatio="none"
     href="https://dnyarri.github.io/sporadic/ahsoka_s7e10_30971.jpg"
     id="image6"
     x="2.7832032e-06"
     y="0"
     inkscape:label="Ahsoka copy"
     style="display:inline;opacity:1;mix-blend-mode:normal"
     mask="url(#mask5)" /><g
     id="g3"
     inkscape:label="Swords"
     transform="translate(186.85715)"><path
       style="display:inline;mix-blend-mode:normal;fill:#ffffff;fill-opacity:1;stroke:#135cdf;stroke-width:12;stroke-linecap:butt;stroke-linejoin:miter;stroke-dasharray:none;stroke-opacity:1;paint-order:stroke fill markers;filter:url(#filter4)"
       d="m 583.81766,335.77471 8.78833,19.84949 -15.69797,460.02347 -28.69823,0.45457 23.183,-459.41738 z"
       id="path2"
       sodipodi:nodetypes="cccccc"
       inkscape:label="R-sword"
       transform="matrix(0.49999942,0,0,0.49999942,-93.428684,0)" /><path
       style="display:inline;mix-blend-mode:normal;fill:#ffffff;fill-opacity:1;stroke:#135cdf;stroke-width:12;stroke-linecap:butt;stroke-linejoin:miter;stroke-dasharray:none;stroke-opacity:1;paint-order:stroke fill markers;filter:url(#filter3)"
       d="m 1360.6755,551.54329 3.6365,21.2132 -140.6132,244.25489 -32.7289,-0.60609 149.7046,-253.95235 z"
       id="path3"
       inkscape:label="L-sword"
       transform="matrix(0.49999942,0,0,0.49999942,-93.428684,0)" /></g><image
     width="1920"
     height="816"
     preserveAspectRatio="none"
     href="https://dnyarri.github.io/sporadic/ahsoka_s7e10_30971.jpg"
     id="image1"
     x="-186.85715"
     y="0"
     inkscape:label="Ahsoka"
     style="display:inline;fill:#000000;fill-opacity:0"
     clip-path="url(#clipPath1)"
     transform="matrix(0.5,0,0,0.5,93.5,0)" /><metadata
     id="metadata1"><rdf:RDF><cc:Work
         rdf:about=""><dc:title>Ahsoka s7e10 030971</dc:title><dc:description>Ahsoka Tano, Clone Wars season 7 episode 10, keyframe 030971.
Clipping path hand-drawn in Photoshop and exported as SVG using
https://github.com/Pomax/photoshop-paths-to-SVG
script.</dc:description><dc:subject><rdf:Bag><rdf:li>Ahsoka</rdf:li><rdf:li>Photoshop</rdf:li><rdf:li>SVG</rdf:li><rdf:li>Javascript</rdf:li></rdf:Bag></dc:subject><dc:creator><cc:Agent><dc:title>https://the-toad.livejournal.com/</dc:title></cc:Agent></dc:creator><dc:publisher><cc:Agent><dc:title>https://the-toad.livejournal.com/</dc:title></cc:Agent></dc:publisher><dc:source>Clone Wars season 7 episode 10, keyframe 030971</dc:source></cc:Work></rdf:RDF></metadata></svg>
