<svg width="712.033" height="418.891" viewBox="0 0 188.392 110.831" xmlns="http://www.w3.org/2000/svg"><defs><marker style="overflow:visible" id="b" refX="0" refY="0" orient="auto-start-reverse" markerWidth="1" markerHeight="1" viewBox="0 0 1 1" preserveAspectRatio="xMidYMid"><path style="fill:none;stroke:context-stroke;stroke-width:1;stroke-linecap:round" d="M3-3 0 0l3 3" transform="rotate(180 .125 0)"/></marker><marker style="overflow:visible" id="a" refX="0" refY="0" orient="auto-start-reverse" markerWidth="1" markerHeight="1" viewBox="0 0 1 1" preserveAspectRatio="xMidYMid"><path style="fill:none;stroke:context-stroke;stroke-width:1;stroke-linecap:butt" d="M3-3 0 0l3 3" transform="rotate(180 .125 0)"/></marker></defs><path style="fill:none;stroke:#000;stroke-width:2;stroke-linecap:round;stroke-linejoin:round;stroke-miterlimit:4;stroke-dasharray:none;stroke-opacity:1;marker-start:url(#a);marker-end:url(#ArrowWideRounded)" d="M184.187 69.497H47.848l-27.574 41.361" transform="translate(-11.884 -16.221)"/><path style="fill:none;stroke:#000;stroke-width:2;stroke-linecap:round;stroke-linejoin:round;stroke-miterlimit:4;stroke-dasharray:none;stroke-opacity:1;marker-end:url(#b)" d="M47.848 69.497V33.04" transform="translate(-11.884 -16.221)"/><path style="fill:red;fill-opacity:1;fill-rule:evenodd;stroke:none;stroke-width:1.60769" d="M52.444 72.561h36.765L80.018 87.88H43.253Z" transform="translate(-11.884 -16.221)"/><path style="fill:#0f0;fill-opacity:1;fill-rule:evenodd;stroke:none;stroke-width:1.60769" d="M52.444 60.306h36.765l-9.191 13.787H43.253Z" transform="translate(-11.884 -16.221)"/><path style="fill:#00f;fill-opacity:1;fill-rule:evenodd;stroke:none;stroke-width:1.608;stroke-dasharray:none" d="M52.444 46.519h36.765l-9.191 15.319H43.253Z" transform="translate(-11.884 -16.221)"/><g style="paint-order:stroke fill markers"><path style="fill:#fff;fill-opacity:1;stroke:#000;stroke-width:1;stroke-linecap:round;stroke-linejoin:round;stroke-miterlimit:4;stroke-dasharray:none;stroke-opacity:1;paint-order:stroke fill markers" d="M41.72 90.944h36.766l-9.191 16.85H30.997l10.724-16.85M86.146 90.944h38.297l-7.66 16.85H78.486l7.66-16.85M132.102 90.944h36.766l-4.596 16.85h-39.83l7.66-16.85" transform="translate(-11.884 -16.221)"/><path style="fill:red;fill-opacity:1;stroke:#000;stroke-width:1;stroke-linecap:round;stroke-linejoin:round;stroke-miterlimit:4;stroke-dasharray:none;stroke-opacity:1;paint-order:stroke fill markers" d="M52.444 72.561h36.765L80.018 87.88H43.253l9.19-15.319" transform="translate(-11.884 -16.221)"/><path style="fill:#fff;fill-opacity:1;stroke:#000;stroke-width:1;stroke-linecap:round;stroke-linejoin:round;stroke-miterlimit:4;stroke-dasharray:none;stroke-opacity:1;paint-order:stroke fill markers" d="M95.337 72.561h36.765l-6.127 15.319H87.677l7.66-15.319M138.23 72.561h36.765L170.4 87.88h-36.766l4.596-15.319" transform="translate(-11.884 -16.221)"/><path style="fill:#0f0;fill-opacity:1;stroke:#000;stroke-width:1;stroke-linecap:round;stroke-linejoin:round;stroke-miterlimit:4;stroke-dasharray:none;stroke-opacity:1;paint-order:stroke fill markers" d="M52.444 60.306h36.765l-9.191 13.787H43.253l9.19-13.787" transform="translate(-11.884 -16.221)"/><path style="fill:#00f;fill-opacity:1;stroke:#000;stroke-width:1;stroke-linecap:round;stroke-linejoin:round;stroke-miterlimit:4;stroke-dasharray:none;stroke-opacity:1;paint-order:stroke fill markers" d="M52.444 46.519h36.765l-9.191 15.319H43.253l9.19-15.32" transform="translate(-11.884 -16.221)"/></g><path d="m189.164 75.72 4.688-6.317-4.134-5.804h1.91l2.199 3.108q.686.968.976 1.489.405-.662.959-1.381l2.439-3.216h1.744l-4.258 5.713 4.59 6.408h-1.985l-3.051-4.325q-.257-.372-.53-.81-.405.662-.578.91l-3.043 4.225z" style="font-size:16.9333px;line-height:125%;font-family:Arial;-inkscape-font-specification:'Arial, Normal';letter-spacing:0;word-spacing:0;stroke-width:1.60769" aria-label="X" transform="translate(-11.884 -16.221)"/><path d="M16.556 127.053v-5.135l-4.672-6.987h1.951l2.39 3.655q.661 1.025 1.232 2.05.546-.95 1.323-2.141l2.348-3.564h1.869l-4.837 6.987v5.135z" style="font-size:16.9333px;line-height:125%;font-family:Arial;-inkscape-font-specification:'Arial, Normal';letter-spacing:0;word-spacing:0;stroke-width:1.60769" aria-label="Y" transform="translate(-11.884 -16.221)"/><path d="M42.589 28.342v-1.488l6.21-7.764q.66-.827 1.256-1.438h-6.763v-1.43h8.681v1.43L45.17 26.06l-.736.852h7.739v1.43z" style="font-size:16.9333px;line-height:125%;font-family:Arial;-inkscape-font-specification:'Arial, Normal';letter-spacing:0;word-spacing:0;stroke-width:1.60769" aria-label="Z" transform="translate(-11.884 -16.221)"/></svg>